<?xml version="1.0" encoding="UTF-8" standalone="no"?>
<!-- Created with Inkscape (http://www.inkscape.org/) -->

<svg
   xmlns:dc="http://purl.org/dc/elements/1.1/"
   xmlns:cc="http://creativecommons.org/ns#"
   xmlns:rdf="http://www.w3.org/1999/02/22-rdf-syntax-ns#"
   xmlns:svg="http://www.w3.org/2000/svg"
   xmlns="http://www.w3.org/2000/svg"
   xmlns:sodipodi="http://sodipodi.sourceforge.net/DTD/sodipodi-0.dtd"
   xmlns:inkscape="http://www.inkscape.org/namespaces/inkscape"
   width="359.54166mm"
   height="324.37988mm"
   viewBox="0 0 1273.9665 1149.3775"
   id="svg2"
   version="1.1"
   inkscape:version="0.91 r13725"
   sodipodi:docname="logo.svg">
  <defs
     id="defs4">
    <clipPath
       id="clipPath4693"
       clipPathUnits="userSpaceOnUse">
      <path
         inkscape:connector-curvature="0"
         id="path4695"
         d="m 19906.6,15916.1 c -8.9,1.5 -17.3,3.1 -25.1,4.9 -104.3,23.6 -122.8,169.8 -126.5,276.6 -15,427.8 142.2,859.1 428.9,1176.9 114.2,126.7 247.1,235.1 382.5,338.9 91.2,69.9 201.8,140.8 310.8,140.8 4.3,0 8.6,-0.1 12.9,-0.3 -187.2,-135.7 -350.7,-305.2 -511.6,-472.7 -210.8,-219.4 -442.1,-413.5 -485.6,-1000.3 -13.3,-180.7 -5.5,-333.3 13.7,-464.8" />
    </clipPath>
  </defs>
  <sodipodi:namedview
     id="base"
     pagecolor="#ffffff"
     bordercolor="#666666"
     borderopacity="1.0"
     inkscape:pageopacity="0.0"
     inkscape:pageshadow="2"
     inkscape:zoom="0.30420347"
     inkscape:cx="432.59026"
     inkscape:cy="247.13491"
     inkscape:document-units="px"
     inkscape:current-layer="layer1"
     showgrid="false"
     showguides="true"
     inkscape:guide-bbox="true"
     inkscape:window-width="1920"
     inkscape:window-height="1043"
     inkscape:window-x="0"
     inkscape:window-y="440"
     inkscape:window-maximized="1"
     fit-margin-top="0"
     fit-margin-left="0"
     fit-margin-right="0"
     fit-margin-bottom="0">
    <sodipodi:guide
       position="758.23389,-1.6287539"
       orientation="0,1"
       id="guide9171" />
    <sodipodi:guide
       position="634.5831,840.60948"
       orientation="1,0"
       id="guide4755" />
    <sodipodi:guide
       position="1002.6184,317.72604"
       orientation="0,1"
       id="guide4564" />
    <sodipodi:guide
       position="925.36746,717.12974"
       orientation="1,0"
       id="guide4566" />
  </sodipodi:namedview>
  <metadata
     id="metadata7">
    <rdf:RDF>
      <cc:Work
         rdf:about="">
        <dc:format>image/svg+xml</dc:format>
        <dc:type
           rdf:resource="http://purl.org/dc/dcmitype/StillImage" />
        <dc:title></dc:title>
      </cc:Work>
    </rdf:RDF>
  </metadata>
  <g
     inkscape:label="Layer 1"
     inkscape:groupmode="layer"
     id="layer1"
     transform="translate(-2542.9446,690.59357)">
    <g
       id="g4568">
      <g
         transform="matrix(0.17929587,-0.05495474,-0.05495474,-0.17929587,842.18694,2892.5561)"
         id="g8655">
        <path
           inkscape:connector-curvature="0"
           id="path8657"
           style="fill:#543d35;fill-opacity:1;fill-rule:nonzero;stroke:none"
           d="m 16201.9,11314 c -13.7,3.8 -28.7,-9.1 -30.3,-21.1 -73.8,184.9 -147.6,369.9 -221.4,554.8 -14.5,36.3 -29.7,73.7 -57.8,100.8 -33.2,32 -79.5,45.2 -121.2,65 -78.6,37.3 -144,101.8 -182.5,179.8 -18.5,37.4 -40,84.6 -81.8,85.8 -22.8,0.7 -43.2,-13.9 -65.4,-18.8 -34.6,-7.7 -69.6,8.4 -101.4,24 -123.1,60.3 -246.2,120.6 -369.2,180.9 -44.4,21.8 -89.7,43.8 -138.5,51.1 -35,5.2 -70.6,2.7 -105.8,0.2 -96.1,-7 -192.3,-13.9 -288.4,-20.8 -35,-2.5 -70.4,-5 -104.6,2.4 -39.4,8.5 -75.2,29.8 -114.7,37.5 -39.6,7.6 -88.4,-4 -103.5,-41.4 -8.2,-20.1 -4.7,-43.5 -12.7,-63.8 -15.6,-39.6 -65,-50.6 -106.1,-61.9 -94.3,-26 -179.7,-83.1 -239.7,-160.4 -14.6,-18.7 -8.5,-55.9 4.6,-61.1 -207.3,-76 -384.9,-230.5 -488.4,-425.5 11.3,1.2 22.6,2.3 34,3.5 -20.5,-26.7 -40.3,-54 -59.6,-81.8 -52.4,-5.1 -109,-1.6 -152.1,-31.6 -72.2,-50.3 -61.9,-158.3 -43.6,-244.3 -148,17 -97.6,-144.3 -71.1,-213.2 1.9,-5.1 3.8,-10 5.7,-14.8 -68.1,-182 -113.6,-370.3 -135.3,-553.9 54.4,11.9 107.2,-22.6 116.4,-80.8 8.8,-55.7 -13.3,-111.7 -12.8,-168 1.5,-183.8 232.1,-307.2 226.3,-490.93 -1,-30.88 -8.9,-62.42 -0.6,-92.18 7.5,-27.09 27.5,-48.69 46.8,-69.17 85.7,-91.1 174,-184.1 286,-239.91 73.4,-36.59 154.1,-55.66 233.9,-74.42 167.3,-39.29 334.5,-78.59 501.8,-117.88 60.3,-14.17 122,-28.96 173.6,-63.26 69.3,-46.1 89.9,-63.1 170.5,-84.05 65.5,-17.03 133.5,10.15 195.7,36.8 116.8,50.01 233.6,100.02 350.3,150.04 162.4,69.52 326.7,140.23 466,248.84 109.3,85.28 228.7,128.64 318.7,234.14 83,97.39 171.7,220.82 130.3,341.88 81.6,14.1 125.8,102.1 150.1,181.1 61.2,198.1 78.6,409.6 50.8,615.1 -10.2,74.9 -18.6,168.1 45.1,208.8 -20.5,49.6 -41.1,99.2 -61.6,148.8 -7.5,18.2 -17.5,38.6 -36.5,43.7" />
      </g>
      <g
         transform="matrix(0.17795614,-0.0545441,-0.0545441,-0.17795614,842.18694,2892.5561)"
         id="g8659">
        <path
           inkscape:connector-curvature="0"
           id="path8661"
           style="fill:#84534a;fill-opacity:1;fill-rule:nonzero;stroke:none"
           d="m 15899.1,11912.6 c -73.2,101.8 -148.4,204.4 -246.6,282.5 -109.9,87.5 -243.1,140 -374.2,191.4 -129.7,50.8 -264.2,102.4 -403.7,96.6 -76.7,-3.2 -151.7,-23.7 -228.2,-29 -29,-2 -58.3,-1.9 -87.5,-1.7 -51.3,0.3 -102.5,0.6 -152.2,-10.9 -143.1,-32.9 -245.4,-154.3 -365.6,-238.6 -160.3,-112.5 -363.9,-165.3 -496.5,-309.3 -111.1,-120.6 -154.7,-286.8 -238.2,-427.8 -54.3,-91.8 -126.2,-174 -166.1,-272.8 -27.8,-68.7 -38.2,-143.9 -31.7,-217.5 3.9,-209.8 65.1,-414.6 127.3,-615.4 87,-280.6 191.3,-580.75 433.7,-747.7 202.4,-139.41 462,-158.05 699.1,-224.76 109.7,-30.86 217.4,-72.93 331.1,-83 113,-10.03 227,12.27 335.3,46.46 483.9,152.57 866.2,536.64 1128.7,969.4 54.1,89.3 105,184.1 117.1,287.5 19.1,163.6 -60.8,319.9 -95.9,480.6 -31.4,143.8 -27.1,294.8 -69.1,435.8 -42.5,142.8 -129.9,267.3 -216.8,388.2" />
      </g>
      <g
         style="fill:#cb3c33;fill-opacity:1"
         transform="matrix(0.17660206,-0.05412908,-0.05412908,-0.17660206,842.18694,2892.5561)"
         id="g8663">
        <path
           inkscape:connector-curvature="0"
           id="path8665"
           style="fill:#cb3c33;fill-opacity:1;fill-rule:nonzero;stroke:none"
           d="m 16061.2,11697.2 c -159.9,290.2 -362.5,585 -671.7,703.9 -235.3,90.4 -503.4,114.7 -749.7,61 -149.5,-32.5 -293.9,-125.4 -428.7,-197.9 -196.1,-105.5 -353.8,-268.8 -508.1,-429.4 -152.8,-159.1 -320.5,-299.8 -351.9,-725.1 -32.6,-439.5 107.8,-650.2 154.5,-821.4 54.8,-200.6 124.2,-418.11 298.9,-531 170.1,-109.92 337.6,-129.25 536.2,-168.88 147.5,-29.45 352.2,-99.71 502.3,-109.02 189.3,-11.74 360.1,112.02 531.2,193.83 223.4,106.83 449,229.67 599.6,426.27 85.1,111.1 142.3,241.2 187,373.9 99.1,294 139.2,618.6 43.4,913.6 -35.2,108.5 -87.9,210.4 -143,310.2" />
      </g>
      <g
         style="fill:#d5635c;fill-opacity:1"
         transform="matrix(0.1756866,-0.05384848,-0.05384848,-0.1756866,842.18694,2892.5561)"
         id="g8667">
        <path
           inkscape:connector-curvature="0"
           id="path8669"
           style="fill:#d5635c;fill-opacity:1;fill-rule:nonzero;stroke:none"
           d="m 16075.9,11694.6 c -150.1,272.3 -340.2,549 -630.4,660.6 -220.8,84.9 -472.5,107.6 -703.6,57.3 -140.4,-30.6 -275.9,-117.7 -402.3,-185.8 -184.1,-99 -332.1,-252.2 -477,-403 -143.4,-149.3 -300.7,-281.3 -330.3,-680.5 -30.5,-412.4 101.2,-610.2 145.1,-770.9 51.4,-188.3 116.5,-392.41 280.5,-498.36 159.6,-103.15 316.8,-121.3 503.2,-158.5 138.5,-27.62 330.6,-93.57 471.4,-102.31 177.7,-11.01 338,105.14 498.5,181.92 209.7,100.26 421.5,215.55 562.8,400.05 79.9,104.3 133.6,226.4 175.5,350.9 93,275.9 130.7,580.6 40.8,857.5 -33.1,101.8 -82.5,197.4 -134.2,291.1" />
      </g>
      <g
         style="fill:#cb3c33;fill-opacity:1"
         transform="matrix(0.17460143,-0.05351588,-0.05351588,-0.17460143,842.18694,2892.5561)"
         id="g8671">
        <path
           inkscape:connector-curvature="0"
           id="path8673"
           style="fill:#cb3c33;fill-opacity:1;fill-rule:nonzero;stroke:none"
           d="m 16091,11718.5 c -140.1,254 -317.4,512.2 -588.2,616.3 -206,79.1 -440.8,100.4 -656.4,53.4 -130.9,-28.5 -257.3,-109.8 -375.3,-173.3 -171.7,-92.4 -309.8,-235.3 -445,-376 -133.7,-139.2 -280.5,-262.4 -308,-634.8 -28.5,-384.8 94.3,-569.3 135.3,-719.2 48,-175.7 108.7,-366.1 261.7,-464.9 148.9,-96.27 295.5,-113.2 469.4,-147.9 129.2,-25.78 308.4,-87.29 439.8,-95.45 165.7,-10.28 315.3,98.08 465.1,169.72 195.6,93.53 393.2,201.03 525,373.23 74.5,97.3 124.6,211.2 163.7,327.4 86.7,257.3 121.9,541.6 38,799.9 -30.8,95 -76.9,184.2 -125.1,271.6" />
      </g>
      <g
         style="fill:#d5635c;fill-opacity:1"
         transform="matrix(0.17276453,-0.05295286,-0.05295286,-0.17276453,842.18694,2892.5561)"
         id="g8675">
        <path
           inkscape:connector-curvature="0"
           id="path8677"
           style="fill:#d5635c;fill-opacity:1;fill-rule:nonzero;stroke:none"
           d="m 16115.9,11785.6 c -123.5,223.8 -280,451.3 -519.1,542.9 -181.8,69.6 -389.2,88.1 -579.7,46.5 -115.6,-25.2 -227.4,-97 -331.6,-153.1 -151.8,-81.6 -273.9,-207.8 -393.3,-331.9 -118.3,-122.9 -248.1,-231.7 -272.8,-560.1 -25.5,-339.3 82.9,-501.9 118.9,-634 42.3,-154.8 95.7,-322.7 230.8,-409.7 131.4,-84.8 260.9,-99.6 414.5,-130 114.1,-22.6 272.3,-76.7 388.4,-83.8 146.4,-8.9 278.5,86.8 410.9,150.1 172.8,82.6 347.5,177.6 464.1,329.5 65.9,85.9 110.2,186.4 144.9,288.8 76.8,227 108.1,477.7 34.2,705.4 -27.1,83.7 -67.8,162.3 -110.2,239.4" />
      </g>
      <g
         style="fill:#cb3c33;fill-opacity:1"
         transform="matrix(0.17213111,-0.05275872,-0.05275872,-0.17213111,842.18694,2892.5561)"
         id="g8679">
        <path
           inkscape:connector-curvature="0"
           id="path8681"
           style="fill:#cb3c33;fill-opacity:1;fill-rule:nonzero;stroke:none"
           d="m 16132,11772.9 c -112.6,204.2 -255.2,411.8 -472.8,495.4 -165.6,63.7 -354.3,80.7 -527.7,43 -105.2,-22.9 -206.8,-88.3 -301.6,-139.3 -138.1,-74.3 -249.1,-189.2 -357.7,-302.2 -107.5,-112 -225.5,-211 -247.6,-510.3 -22.9,-309.3 75.8,-457.6 108.7,-578.1 38.6,-141.2 87.4,-294.3 210.4,-373.8 119.7,-77.3 237.6,-90.9 377.3,-118.8 103.8,-20.7 247.9,-70.2 353.6,-76.7 133.1,-8.3 253.4,78.8 373.8,136.4 157.2,75.2 316,161.6 422,300 59.9,78.2 100.2,169.8 131.6,263.1 69.7,206.9 98,435.4 30.6,643 -24.8,76.4 -61.9,148.1 -100.6,218.3" />
      </g>
      <g
         style="fill:#d5635c;fill-opacity:1"
         transform="matrix(0.17074955,-0.05233526,-0.05233526,-0.17074955,842.18694,2892.5561)"
         id="g8683">
        <path
           inkscape:connector-curvature="0"
           id="path8685"
           style="fill:#d5635c;fill-opacity:1;fill-rule:nonzero;stroke:none"
           d="m 16147.9,11805.1 c -101.3,184.5 -229.1,372.2 -422.5,449.2 -147.1,58.6 -314.2,75.4 -467.4,42.9 -92.9,-19.8 -182.3,-77.7 -265.9,-122.9 -121.6,-65.6 -218.9,-168.1 -314.1,-268.8 -94.3,-99.8 -198,-187.9 -215.2,-456.8 -17.7,-278 70.9,-412.1 101,-520.7 35.2,-127.3 79.7,-265.3 189.2,-337.7 106.6,-70.6 211,-83.7 334.9,-110 92.1,-19.4 220,-65 313.6,-71.8 118,-8.5 223.7,68.9 329.8,119.7 138.5,66.3 278.4,142.8 371.1,266.3 52.4,69.9 87.3,151.9 114.4,235.6 60,185.4 83.2,390.7 21.9,577.9 -22.6,68.8 -55.9,133.6 -90.8,197.1" />
      </g>
      <g
         style="fill:#cb3c33;fill-opacity:1"
         transform="matrix(0.16990221,-0.05207555,-0.05207555,-0.16990221,842.18694,2892.5561)"
         id="g8687">
        <path
           inkscape:connector-curvature="0"
           id="path8689"
           style="fill:#cb3c33;fill-opacity:1;fill-rule:nonzero;stroke:none"
           d="m 16170.1,11783.4 c -86.4,157.5 -195.2,317.8 -359.3,383.8 -124.8,50.3 -266.6,65.1 -396.3,37.8 -78.7,-16.6 -154.4,-65.7 -225.1,-104 -102.9,-55.6 -185.1,-142.7 -265.6,-228.3 -79.6,-84.8 -167.2,-159.6 -181.1,-388.7 -14.3,-236.8 61.1,-351.3 86.9,-443.9 30.2,-108.6 68.3,-226.3 161.3,-288.3 90.5,-60.4 179,-71.9 284.1,-94.5 78.1,-16.9 186.7,-56.1 266,-62.1 100,-7.5 189.4,58.1 279.2,101.1 117.3,56.2 235.7,121 313.9,226.1 44.3,59.3 73.6,129.1 96.4,200.4 50.4,157.9 69.5,332.7 17,492.4 -19.2,58.7 -47.7,114 -77.4,168.2" />
      </g>
      <g
         style="fill:#d5635c;fill-opacity:1"
         transform="matrix(0.16846208,-0.05163415,-0.05163415,-0.16846208,842.18694,2892.5561)"
         id="g8691">
        <path
           inkscape:connector-curvature="0"
           id="path8693"
           style="fill:#d5635c;fill-opacity:1;fill-rule:nonzero;stroke:none"
           d="m 16199.6,11820.9 c -67.8,122.3 -153.9,246.5 -286.7,295.6 -101.1,37.3 -216.6,46.5 -322.9,22.8 -64.6,-14.4 -127.3,-54.4 -185.7,-85.7 -84.9,-45.6 -153.6,-115.4 -220.8,-184.1 -66.5,-68.1 -139.3,-128.4 -154.7,-308.8 -15.8,-186.5 43.8,-275.2 63.3,-347.6 22.8,-84.8 51.8,-176.8 126.7,-223.9 72.8,-45.9 144.9,-53.4 230.4,-69.4 63.5,-11.8 151.4,-40.8 216.1,-44.1 81.5,-4.2 155.6,49 229.8,84.3 96.7,46.2 194.5,99.2 260.2,183.2 37.1,47.5 62.3,102.9 82.1,159.3 43.9,125 62.6,262.8 22.5,387.5 -14.7,45.8 -37,88.8 -60.3,130.9" />
      </g>
      <g
         style="fill:#cb3c33;fill-opacity:1"
         transform="matrix(0.16692157,-0.05116198,-0.05116198,-0.16692157,842.18694,2892.5561)"
         id="g8695">
        <path
           inkscape:connector-curvature="0"
           id="path8697"
           style="fill:#cb3c33;fill-opacity:1;fill-rule:nonzero;stroke:none"
           d="m 16220.3,11857.8 c -53.5,96.8 -121.3,195.3 -225.1,234.7 -79,30.1 -169.1,37.9 -251.9,19.7 -50.3,-11 -98.9,-42.2 -144.2,-66.6 -66.1,-35.5 -119.3,-90.2 -171.3,-144.1 -51.5,-53.3 -108,-100.5 -118.9,-242.8 -11.4,-147 35.6,-217.4 51.1,-274.6 18.3,-67 41.4,-139.7 100,-177.3 57.1,-36.6 113.4,-42.9 180,-56 49.6,-9.7 118.3,-33 168.8,-36 63.5,-3.7 121.1,37.8 178.7,65.4 75.2,35.9 151.1,77.2 201.9,143.1 28.8,37.3 48.1,80.8 63.2,125.2 33.6,98.4 47.4,207.1 15.5,305.6 -11.8,36.3 -29.4,70.3 -47.8,103.7" />
      </g>
      <g
         style="fill:#d5635c;fill-opacity:1"
         transform="matrix(0.16527947,-0.05065867,-0.05065867,-0.16527947,842.18694,2892.5561)"
         id="g8699">
        <path
           inkscape:connector-curvature="0"
           id="path8701"
           style="fill:#d5635c;fill-opacity:1;fill-rule:nonzero;stroke:none"
           d="m 16243.6,11893 c -37.6,68.4 -85.1,138 -157,166.5 -54.7,21.7 -116.8,27.9 -173.7,15.8 -34.6,-7.4 -67.9,-29 -99,-45.7 -45.2,-24.5 -81.5,-62.5 -116.9,-100 -35.1,-37 -73.7,-69.8 -80.2,-169.6 -6.7,-103.2 26.2,-152.9 37.4,-193.2 13,-47.2 29.5,-98.5 70.2,-125.3 39.6,-26.1 78.4,-31 124.5,-40.7 34.2,-7.2 81.8,-24 116.6,-26.5 43.8,-3.1 83.2,25.6 122.6,44.5 51.6,24.7 103.7,53.1 138.1,99 19.6,26 32.6,56.4 42.7,87.5 22.4,68.9 31.1,145.1 8.3,214.5 -8.3,25.6 -20.7,49.6 -33.6,73.2" />
      </g>
      <g
         style="fill:#cb3c33;fill-opacity:1"
         transform="matrix(0.16350472,-0.0501147,-0.0501147,-0.16350472,842.18694,2892.5561)"
         id="g8703">
        <path
           inkscape:connector-curvature="0"
           id="path8705"
           style="fill:#cb3c33;fill-opacity:1;fill-rule:nonzero;stroke:none"
           d="m 16189.6,12111.8 c -26.1,6.6 -53.8,3.2 -80,-2.9 -46.9,-10.9 -92.8,-30.7 -127.3,-64.3 -34.5,-33.5 -56.2,-82.2 -50,-129.9 3.7,-27.2 17.7,-53.2 37.9,-71.6 22.1,-53.9 4.8,-121.3 37.1,-170.2 27,-41 83.1,-55.5 131.2,-45.3 48.1,10.2 89.4,40.6 125.8,73.7 11.3,10.3 22.5,21.3 28.8,35.2 6.9,15.5 6.9,33 6.9,49.9 -0.1,29.7 -0.2,59.3 -0.3,89 -0.1,47 -0.4,95 -15.8,139.5 -15.3,44.4 -48.7,85.4 -94.3,96.9" />
      </g>
      <g
         transform="matrix(0.1605193,-0.04919966,-0.04919966,-0.1605193,842.18694,2892.5561)"
         id="g8707">
        <path
           inkscape:connector-curvature="0"
           id="path8709"
           style="fill:#543d35;fill-opacity:1;fill-rule:nonzero;stroke:none"
           d="m 15785.4,13618.8 c 14.2,-15.8 30.9,-29.4 44.8,-45.6 24.3,-28.1 39.5,-62.9 53.7,-97.3 54.9,-132.7 103,-271.2 190.9,-384.9 60,-77.6 137.6,-141.6 225.2,-185.6 -54.1,54.4 -105.1,111.9 -152.6,172.1 -52.4,66.3 -103.1,144.5 -93.3,228.5 4.2,36.5 19.9,73.3 11,109 -8.9,36 -40.1,61 -65.2,88.3 -31.8,34.5 -55.7,76.1 -69.6,121 -2.6,8.5 -4.9,17.7 -2.4,26.3 4,14.2 18.9,21.6 30.9,30.2 44.3,31.7 55.7,100.9 24.1,145.2 -1.7,2.5 -3.6,5.3 -4.7,8.2 l -238.1,-135.7 c 9,-29.4 24.6,-56.9 45.3,-79.7" />
      </g>
      <g
         transform="matrix(0.15306652,-0.04691536,-0.04691536,-0.15306652,842.18694,2892.5561)"
         id="g8715">
        <path
           inkscape:connector-curvature="0"
           id="path8717"
           style="fill:#543d35;fill-opacity:1;fill-rule:nonzero;stroke:none"
           d="m 16148.9,11686.6 c -39,-21.3 -84.2,-31.8 -118.7,-59.8 -34.6,-27.9 -53.4,-84.3 -22.4,-116.3 -127.5,-23.1 -204.1,-151.7 -311.6,-224 l 273.5,-230 c -9.2,71.9 -18.4,143.8 -27.6,215.7 -3,23.3 -4.5,50.7 13,66.4 10.5,9.3 25.2,11.8 39.1,13.9 45.9,7 91.9,14 137.8,21 -8.8,47.1 -34.1,89.8 -43.9,136.7 -9.8,46.9 2.1,105 45.8,124.7 33.5,15 78.2,4.1 104.1,30.1 11.2,11.1 16.2,26.9 20.7,42 13.7,45.8 27.6,91.5 41.3,137.2 -42.2,-60.1 -86.6,-122.4 -151.1,-157.6" />
      </g>
      <g
         transform="matrix(0.17847602,-0.05470345,-0.05470345,-0.17847602,842.18694,2892.5561)"
         id="g8719">
        <path
           inkscape:connector-curvature="0"
           id="path8721"
           style="fill:#543d35;fill-opacity:1;fill-rule:nonzero;stroke:none"
           d="m 16090.2,10605.7 c -20.7,-7.1 -40.4,-16.8 -61.2,-23.8 -50.2,-16.8 -104.2,-16.7 -157.1,-16.5 48.3,-19 97.3,-38.3 148.9,-44.2 16.9,-1.9 33.9,-2.4 50.7,-4.9 66.5,-9.8 124,-49.6 178.7,-88.3 l 49.8,181 c -69.5,13 -142.8,19.5 -209.8,-3.3" />
      </g>
      <g
         transform="matrix(0.16324657,-0.05003558,-0.05003558,-0.16324657,842.18694,2892.5561)"
         id="g8723">
        <path
           inkscape:connector-curvature="0"
           id="path8725"
           style="fill:#543d35;fill-opacity:1;fill-rule:nonzero;stroke:none"
           d="m 16242.8,11939.2 c -37.1,16.1 -59.5,60.4 -50.3,99.9 -8.8,-22.7 -23.3,-44.5 -45.3,-54.9 -39.4,-18.5 -43.8,-0.4 -78.5,-28.1 -7.7,-6.2 -67.5,-95.7 -72.7,-90.1 10.4,-10.9 25.9,-9.9 41.8,-8.8 13.9,0.9 27.9,1.8 39.1,-5.1 17.9,-11.1 19.1,-36 22.5,-56.9 6.2,-38.2 26.8,-73.9 56.8,-98.3 15.8,85.4 69.4,163.1 143.8,208 -8.3,21.5 -36.1,25.1 -57.2,34.3" />
      </g>
      <g
         transform="matrix(0.17280874,-0.05296641,-0.05296641,-0.17280874,842.18694,2892.5561)"
         id="g8727">
        <path
           inkscape:connector-curvature="0"
           id="path8729"
           style="fill:#543d35;fill-opacity:1;fill-rule:nonzero;stroke:none"
           d="m 16043.8,10278.8 c -6.3,10.9 -12.5,22.4 -23,29.2 -24.3,15.7 -56.8,-0.7 -85.1,5 -46.6,9.3 -59.6,68.5 -90.6,104.5 -32.3,37.3 -84.5,48.7 -128.9,70 -44.6,21.4 -87.7,67.6 -72.1,114.5 5.5,16.6 18.2,31.4 17.9,48.9 -0.4,29.4 -34,44.6 -60.6,57 -116.8,54.8 -182.2,178.6 -239.5,294.2 48.7,-103.8 97.3,-207.6 145.9,-311.3 25.3,-54.1 50.9,-108.6 86.2,-156.7 59.8,-81.3 151.3,-156.7 144.3,-257.4 -1.2,-17.2 -5.5,-34.4 -3.3,-51.5 10.2,-80.6 142,-94.3 159.9,-173.5 6.1,-27 -3.3,-54.91 -4.7,-82.57 -2.8,-56.46 31.5,-113.01 83,-136.51 L 16300,10050 c -106.8,46.4 -198.1,127.9 -256.2,228.8" />
      </g>
      <g
         transform="matrix(-0.18343454,0.03897181,0.03897181,0.18343454,5445.633,-2929.4138)"
         id="g8999">
        <path
           inkscape:connector-curvature="0"
           id="path9001"
           style="fill:#543d35;fill-opacity:1;fill-rule:nonzero;stroke:none"
           d="m 16201.9,11314 c -13.7,3.8 -28.7,-9.1 -30.3,-21.1 -73.8,184.9 -147.6,369.9 -221.4,554.8 -14.5,36.3 -29.7,73.7 -57.8,100.8 -33.2,32 -79.5,45.2 -121.2,65 -78.6,37.3 -144,101.8 -182.5,179.8 -18.5,37.4 -40,84.6 -81.8,85.8 -22.8,0.7 -43.2,-13.9 -65.4,-18.8 -34.6,-7.7 -69.6,8.4 -101.4,24 -123.1,60.3 -246.2,120.6 -369.2,180.9 -44.4,21.8 -89.7,43.8 -138.5,51.1 -35,5.2 -70.6,2.7 -105.8,0.2 -96.1,-7 -192.3,-13.9 -288.4,-20.8 -35,-2.5 -70.4,-5 -104.6,2.4 -39.4,8.5 -75.2,29.8 -114.7,37.5 -39.6,7.6 -88.4,-4 -103.5,-41.4 -8.2,-20.1 -4.7,-43.5 -12.7,-63.8 -15.6,-39.6 -65,-50.6 -106.1,-61.9 -94.3,-26 -179.7,-83.1 -239.7,-160.4 -14.6,-18.7 -8.5,-55.9 4.6,-61.1 -207.3,-76 -384.9,-230.5 -488.4,-425.5 11.3,1.2 22.6,2.3 34,3.5 -20.5,-26.7 -40.3,-54 -59.6,-81.8 -52.4,-5.1 -109,-1.6 -152.1,-31.6 -72.2,-50.3 -61.9,-158.3 -43.6,-244.3 -148,17 -97.6,-144.3 -71.1,-213.2 1.9,-5.1 3.8,-10 5.7,-14.8 -68.1,-182 -113.6,-370.3 -135.3,-553.9 54.4,11.9 107.2,-22.6 116.4,-80.8 8.8,-55.7 -13.3,-111.7 -12.8,-168 1.5,-183.8 232.1,-307.2 226.3,-490.93 -1,-30.88 -8.9,-62.42 -0.6,-92.18 7.5,-27.09 27.5,-48.69 46.8,-69.17 85.7,-91.1 174,-184.1 286,-239.91 73.4,-36.59 154.1,-55.66 233.9,-74.42 167.3,-39.29 334.5,-78.59 501.8,-117.88 60.3,-14.17 122,-28.96 173.6,-63.26 69.3,-46.1 89.9,-63.1 170.5,-84.05 65.5,-17.03 133.5,10.15 195.7,36.8 116.8,50.01 233.6,100.02 350.3,150.04 162.4,69.52 326.7,140.23 466,248.84 109.3,85.28 228.7,128.64 318.7,234.14 83,97.39 171.7,220.82 130.3,341.88 81.6,14.1 125.8,102.1 150.1,181.1 61.2,198.1 78.6,409.6 50.8,615.1 -10.2,74.9 -18.6,168.1 45.1,208.8 -20.5,49.6 -41.1,99.2 -61.6,148.8 -7.5,18.2 -17.5,38.6 -36.5,43.7" />
      </g>
      <g
         transform="matrix(-0.18206389,0.03868061,0.03868061,0.18206389,5445.633,-2929.4138)"
         id="g9003">
        <path
           inkscape:connector-curvature="0"
           id="path9005"
           style="fill:#84534a;fill-opacity:1;fill-rule:nonzero;stroke:none"
           d="m 15899.1,11912.6 c -73.2,101.8 -148.4,204.4 -246.6,282.5 -109.9,87.5 -243.1,140 -374.2,191.4 -129.7,50.8 -264.2,102.4 -403.7,96.6 -76.7,-3.2 -151.7,-23.7 -228.2,-29 -29,-2 -58.3,-1.9 -87.5,-1.7 -51.3,0.3 -102.5,0.6 -152.2,-10.9 -143.1,-32.9 -245.4,-154.3 -365.6,-238.6 -160.3,-112.5 -363.9,-165.3 -496.5,-309.3 -111.1,-120.6 -154.7,-286.8 -238.2,-427.8 -54.3,-91.8 -126.2,-174 -166.1,-272.8 -27.8,-68.7 -38.2,-143.9 -31.7,-217.5 3.9,-209.8 65.1,-414.6 127.3,-615.4 87,-280.6 191.3,-580.75 433.7,-747.7 202.4,-139.41 462,-158.05 699.1,-224.76 109.7,-30.86 217.4,-72.93 331.1,-83 113,-10.03 227,12.27 335.3,46.46 483.9,152.57 866.2,536.64 1128.7,969.4 54.1,89.3 105,184.1 117.1,287.5 19.1,163.6 -60.8,319.9 -95.9,480.6 -31.4,143.8 -27.1,294.8 -69.1,435.8 -42.5,142.8 -129.9,267.3 -216.8,388.2" />
      </g>
      <g
         style="opacity:1;fill:#389826;fill-opacity:1"
         transform="matrix(-0.18067856,0.03838628,0.03838628,0.18067856,5445.633,-2929.4138)"
         id="g9007">
        <path
           inkscape:connector-curvature="0"
           id="path9009"
           style="fill:#389826;fill-opacity:1;fill-rule:nonzero;stroke:none"
           d="m 16061.2,11697.2 c -159.9,290.2 -362.5,585 -671.7,703.9 -235.3,90.4 -503.4,114.7 -749.7,61 -149.5,-32.5 -293.9,-125.4 -428.7,-197.9 -196.1,-105.5 -353.8,-268.8 -508.1,-429.4 -152.8,-159.1 -320.5,-299.8 -351.9,-725.1 -32.6,-439.5 107.8,-650.2 154.5,-821.4 54.8,-200.6 124.2,-418.11 298.9,-531 170.1,-109.92 337.6,-129.25 536.2,-168.88 147.5,-29.45 352.2,-99.71 502.3,-109.02 189.3,-11.74 360.1,112.02 531.2,193.83 223.4,106.83 449,229.67 599.6,426.27 85.1,111.1 142.3,241.2 187,373.9 99.1,294 139.2,618.6 43.4,913.6 -35.2,108.5 -87.9,210.4 -143,310.2" />
      </g>
      <g
         style="fill:#60ad51;fill-opacity:1"
         transform="matrix(-0.17974195,0.03818729,0.03818729,0.17974195,5445.633,-2929.4138)"
         id="g9011">
        <path
           inkscape:connector-curvature="0"
           id="path9013"
           style="fill:#60ad51;fill-opacity:1;fill-rule:nonzero;stroke:none"
           d="m 16075.9,11694.6 c -150.1,272.3 -340.2,549 -630.4,660.6 -220.8,84.9 -472.5,107.6 -703.6,57.3 -140.4,-30.6 -275.9,-117.7 -402.3,-185.8 -184.1,-99 -332.1,-252.2 -477,-403 -143.4,-149.3 -300.7,-281.3 -330.3,-680.5 -30.5,-412.4 101.2,-610.2 145.1,-770.9 51.4,-188.3 116.5,-392.41 280.5,-498.36 159.6,-103.15 316.8,-121.3 503.2,-158.5 138.5,-27.62 330.6,-93.57 471.4,-102.31 177.7,-11.01 338,105.14 498.5,181.92 209.7,100.26 421.5,215.55 562.8,400.05 79.9,104.3 133.6,226.4 175.5,350.9 93,275.9 130.7,580.6 40.8,857.5 -33.1,101.8 -82.5,197.4 -134.2,291.1" />
      </g>
      <g
         style="opacity:1;fill:#389826;fill-opacity:1"
         transform="matrix(-0.17863174,0.03795142,0.03795142,0.17863174,5445.633,-2929.4138)"
         id="g9015">
        <path
           inkscape:connector-curvature="0"
           id="path9017"
           style="fill:#389826;fill-opacity:1;fill-rule:nonzero;stroke:none"
           d="m 16091,11718.5 c -140.1,254 -317.4,512.2 -588.2,616.3 -206,79.1 -440.8,100.4 -656.4,53.4 -130.9,-28.5 -257.3,-109.8 -375.3,-173.3 -171.7,-92.4 -309.8,-235.3 -445,-376 -133.7,-139.2 -280.5,-262.4 -308,-634.8 -28.5,-384.8 94.3,-569.3 135.3,-719.2 48,-175.7 108.7,-366.1 261.7,-464.9 148.9,-96.27 295.5,-113.2 469.4,-147.9 129.2,-25.78 308.4,-87.29 439.8,-95.45 165.7,-10.28 315.3,98.08 465.1,169.72 195.6,93.53 393.2,201.03 525,373.23 74.5,97.3 124.6,211.2 163.7,327.4 86.7,257.3 121.9,541.6 38,799.9 -30.8,95 -76.9,184.2 -125.1,271.6" />
      </g>
      <g
         style="fill:#60ad51;fill-opacity:1"
         transform="matrix(-0.17675243,0.03755215,0.03755215,0.17675243,5445.633,-2929.4138)"
         id="g9019">
        <path
           inkscape:connector-curvature="0"
           id="path9021"
           style="fill:#60ad51;fill-opacity:1;fill-rule:nonzero;stroke:none"
           d="m 16115.9,11785.6 c -123.5,223.8 -280,451.3 -519.1,542.9 -181.8,69.6 -389.2,88.1 -579.7,46.5 -115.6,-25.2 -227.4,-97 -331.6,-153.1 -151.8,-81.6 -273.9,-207.8 -393.3,-331.9 -118.3,-122.9 -248.1,-231.7 -272.8,-560.1 -25.5,-339.3 82.9,-501.9 118.9,-634 42.3,-154.8 95.7,-322.7 230.8,-409.7 131.4,-84.8 260.9,-99.6 414.5,-130 114.1,-22.6 272.3,-76.7 388.4,-83.8 146.4,-8.9 278.5,86.8 410.9,150.1 172.8,82.6 347.5,177.6 464.1,329.5 65.9,85.9 110.2,186.4 144.9,288.8 76.8,227 108.1,477.7 34.2,705.4 -27.1,83.7 -67.8,162.3 -110.2,239.4" />
      </g>
      <g
         style="opacity:1;fill:#389826;fill-opacity:1"
         transform="matrix(-0.17610439,0.03741447,0.03741447,0.17610439,5445.633,-2929.4138)"
         id="g9023">
        <path
           inkscape:connector-curvature="0"
           id="path9025"
           style="fill:#389826;fill-opacity:1;fill-rule:nonzero;stroke:none"
           d="m 16132,11772.9 c -112.6,204.2 -255.2,411.8 -472.8,495.4 -165.6,63.7 -354.3,80.7 -527.7,43 -105.2,-22.9 -206.8,-88.3 -301.6,-139.3 -138.1,-74.3 -249.1,-189.2 -357.7,-302.2 -107.5,-112 -225.5,-211 -247.6,-510.3 -22.9,-309.3 75.8,-457.6 108.7,-578.1 38.6,-141.2 87.4,-294.3 210.4,-373.8 119.7,-77.3 237.6,-90.9 377.3,-118.8 103.8,-20.7 247.9,-70.2 353.6,-76.7 133.1,-8.3 253.4,78.8 373.8,136.4 157.2,75.2 316,161.6 422,300 59.9,78.2 100.2,169.8 131.6,263.1 69.7,206.9 98,435.4 30.6,643 -24.8,76.4 -61.9,148.1 -100.6,218.3" />
      </g>
      <g
         style="fill:#60ad51;fill-opacity:1"
         transform="matrix(-0.17469095,0.03711418,0.03711418,0.17469095,5445.633,-2929.4138)"
         id="g9027">
        <path
           inkscape:connector-curvature="0"
           id="path9029"
           style="fill:#60ad51;fill-opacity:1;fill-rule:nonzero;stroke:none"
           d="m 16147.9,11805.1 c -101.3,184.5 -229.1,372.2 -422.5,449.2 -147.1,58.6 -314.2,75.4 -467.4,42.9 -92.9,-19.8 -182.3,-77.7 -265.9,-122.9 -121.6,-65.6 -218.9,-168.1 -314.1,-268.8 -94.3,-99.8 -198,-187.9 -215.2,-456.8 -17.7,-278 70.9,-412.1 101,-520.7 35.2,-127.3 79.7,-265.3 189.2,-337.7 106.6,-70.6 211,-83.7 334.9,-110 92.1,-19.4 220,-65 313.6,-71.8 118,-8.5 223.7,68.9 329.8,119.7 138.5,66.3 278.4,142.8 371.1,266.3 52.4,69.9 87.3,151.9 114.4,235.6 60,185.4 83.2,390.7 21.9,577.9 -22.6,68.8 -55.9,133.6 -90.8,197.1" />
      </g>
      <g
         style="opacity:1;fill:#389826;fill-opacity:1"
         transform="matrix(-0.17382404,0.03692999,0.03692999,0.17382404,5445.633,-2929.4138)"
         id="g9031">
        <path
           inkscape:connector-curvature="0"
           id="path9033"
           style="fill:#389826;fill-opacity:1;fill-rule:nonzero;stroke:none"
           d="m 16170.1,11783.4 c -86.4,157.5 -195.2,317.8 -359.3,383.8 -124.8,50.3 -266.6,65.1 -396.3,37.8 -78.7,-16.6 -154.4,-65.7 -225.1,-104 -102.9,-55.6 -185.1,-142.7 -265.6,-228.3 -79.6,-84.8 -167.2,-159.6 -181.1,-388.7 -14.3,-236.8 61.1,-351.3 86.9,-443.9 30.2,-108.6 68.3,-226.3 161.3,-288.3 90.5,-60.4 179,-71.9 284.1,-94.5 78.1,-16.9 186.7,-56.1 266,-62.1 100,-7.5 189.4,58.1 279.2,101.1 117.3,56.2 235.7,121 313.9,226.1 44.3,59.3 73.6,129.1 96.4,200.4 50.4,157.9 69.5,332.7 17,492.4 -19.2,58.7 -47.7,114 -77.4,168.2" />
      </g>
      <g
         style="fill:#60ad51;fill-opacity:1"
         transform="matrix(-0.17235068,0.03661697,0.03661697,0.17235068,5445.633,-2929.4138)"
         id="g9035">
        <path
           inkscape:connector-curvature="0"
           id="path9037"
           style="fill:#60ad51;fill-opacity:1;fill-rule:nonzero;stroke:none"
           d="m 16199.6,11820.9 c -67.8,122.3 -153.9,246.5 -286.7,295.6 -101.1,37.3 -216.6,46.5 -322.9,22.8 -64.6,-14.4 -127.3,-54.4 -185.7,-85.7 -84.9,-45.6 -153.6,-115.4 -220.8,-184.1 -66.5,-68.1 -139.3,-128.4 -154.7,-308.8 -15.8,-186.5 43.8,-275.2 63.3,-347.6 22.8,-84.8 51.8,-176.8 126.7,-223.9 72.8,-45.9 144.9,-53.4 230.4,-69.4 63.5,-11.8 151.4,-40.8 216.1,-44.1 81.5,-4.2 155.6,49 229.8,84.3 96.7,46.2 194.5,99.2 260.2,183.2 37.1,47.5 62.3,102.9 82.1,159.3 43.9,125 62.6,262.8 22.5,387.5 -14.7,45.8 -37,88.8 -60.3,130.9" />
      </g>
      <g
         style="opacity:1;fill:#389826;fill-opacity:1"
         transform="matrix(-0.1707746,0.03628212,0.03628212,0.1707746,5445.633,-2929.4138)"
         id="g9039">
        <path
           inkscape:connector-curvature="0"
           id="path9041"
           style="fill:#389826;fill-opacity:1;fill-rule:nonzero;stroke:none"
           d="m 16220.3,11857.8 c -53.5,96.8 -121.3,195.3 -225.1,234.7 -79,30.1 -169.1,37.9 -251.9,19.7 -50.3,-11 -98.9,-42.2 -144.2,-66.6 -66.1,-35.5 -119.3,-90.2 -171.3,-144.1 -51.5,-53.3 -108,-100.5 -118.9,-242.8 -11.4,-147 35.6,-217.4 51.1,-274.6 18.3,-67 41.4,-139.7 100,-177.3 57.1,-36.6 113.4,-42.9 180,-56 49.6,-9.7 118.3,-33 168.8,-36 63.5,-3.7 121.1,37.8 178.7,65.4 75.2,35.9 151.1,77.2 201.9,143.1 28.8,37.3 48.1,80.8 63.2,125.2 33.6,98.4 47.4,207.1 15.5,305.6 -11.8,36.3 -29.4,70.3 -47.8,103.7" />
      </g>
      <g
         style="fill:#60ad51;fill-opacity:1"
         transform="matrix(-0.1690946,0.0359252,0.0359252,0.1690946,5445.633,-2929.4138)"
         id="g9043">
        <path
           inkscape:connector-curvature="0"
           id="path9045"
           style="fill:#60ad51;fill-opacity:1;fill-rule:nonzero;stroke:none"
           d="m 16243.6,11893 c -37.6,68.4 -85.1,138 -157,166.5 -54.7,21.7 -116.8,27.9 -173.7,15.8 -34.6,-7.4 -67.9,-29 -99,-45.7 -45.2,-24.5 -81.5,-62.5 -116.9,-100 -35.1,-37 -73.7,-69.8 -80.2,-169.6 -6.7,-103.2 26.2,-152.9 37.4,-193.2 13,-47.2 29.5,-98.5 70.2,-125.3 39.6,-26.1 78.4,-31 124.5,-40.7 34.2,-7.2 81.8,-24 116.6,-26.5 43.8,-3.1 83.2,25.6 122.6,44.5 51.6,24.7 103.7,53.1 138.1,99 19.6,26 32.6,56.4 42.7,87.5 22.4,68.9 31.1,145.1 8.3,214.5 -8.3,25.6 -20.7,49.6 -33.6,73.2" />
      </g>
      <g
         style="opacity:1;fill:#389826;fill-opacity:1"
         transform="matrix(-0.16727889,0.03553944,0.03553944,0.16727889,5445.633,-2929.4138)"
         id="g9047">
        <path
           inkscape:connector-curvature="0"
           id="path9049"
           style="fill:#389826;fill-opacity:1;fill-rule:nonzero;stroke:none"
           d="m 16189.6,12111.8 c -26.1,6.6 -53.8,3.2 -80,-2.9 -46.9,-10.9 -92.8,-30.7 -127.3,-64.3 -34.5,-33.5 -56.2,-82.2 -50,-129.9 3.7,-27.2 17.7,-53.2 37.9,-71.6 22.1,-53.9 4.8,-121.3 37.1,-170.2 27,-41 83.1,-55.5 131.2,-45.3 48.1,10.2 89.4,40.6 125.8,73.7 11.3,10.3 22.5,21.3 28.8,35.2 6.9,15.5 6.9,33 6.9,49.9 -0.1,29.7 -0.2,59.3 -0.3,89 -0.1,47 -0.4,95 -15.8,139.5 -15.3,44.4 -48.7,85.4 -94.3,96.9" />
      </g>
      <g
         transform="matrix(-0.16422455,0.03489053,0.03489053,0.16422455,5445.633,-2929.4138)"
         id="g9051">
        <path
           inkscape:connector-curvature="0"
           id="path9053"
           style="fill:#543d35;fill-opacity:1;fill-rule:nonzero;stroke:none"
           d="m 15785.4,13618.8 c 14.2,-15.8 30.9,-29.4 44.8,-45.6 24.3,-28.1 39.5,-62.9 53.7,-97.3 54.9,-132.7 103,-271.2 190.9,-384.9 60,-77.6 137.6,-141.6 225.2,-185.6 -54.1,54.4 -105.1,111.9 -152.6,172.1 -52.4,66.3 -103.1,144.5 -93.3,228.5 4.2,36.5 19.9,73.3 11,109 -8.9,36 -40.1,61 -65.2,88.3 -31.8,34.5 -55.7,76.1 -69.6,121 -2.6,8.5 -4.9,17.7 -2.4,26.3 4,14.2 18.9,21.6 30.9,30.2 44.3,31.7 55.7,100.9 24.1,145.2 -1.7,2.5 -3.6,5.3 -4.7,8.2 l -238.1,-135.7 c 9,-29.4 24.6,-56.9 45.3,-79.7" />
      </g>
      <g
         transform="matrix(-0.15659973,0.03327058,0.03327058,0.15659973,5445.633,-2929.4138)"
         id="g9059">
        <path
           inkscape:connector-curvature="0"
           id="path9061"
           style="fill:#543d35;fill-opacity:1;fill-rule:nonzero;stroke:none"
           d="m 16148.9,11686.6 c -39,-21.3 -84.2,-31.8 -118.7,-59.8 -34.6,-27.9 -53.4,-84.3 -22.4,-116.3 -127.5,-23.1 -204.1,-151.7 -311.6,-224 l 273.5,-230 c -9.2,71.9 -18.4,143.8 -27.6,215.7 -3,23.3 -4.5,50.7 13,66.4 10.5,9.3 25.2,11.8 39.1,13.9 45.9,7 91.9,14 137.8,21 -8.8,47.1 -34.1,89.8 -43.9,136.7 -9.8,46.9 2.1,105 45.8,124.7 33.5,15 78.2,4.1 104.1,30.1 11.2,11.1 16.2,26.9 20.7,42 13.7,45.8 27.6,91.5 41.3,137.2 -42.2,-60.1 -86.6,-122.4 -151.1,-157.6" />
      </g>
      <g
         transform="matrix(-0.18259576,0.03879361,0.03879361,0.18259576,5445.633,-2929.4138)"
         id="g9063">
        <path
           inkscape:connector-curvature="0"
           id="path9065"
           style="fill:#543d35;fill-opacity:1;fill-rule:nonzero;stroke:none"
           d="m 16090.2,10605.7 c -20.7,-7.1 -40.4,-16.8 -61.2,-23.8 -50.2,-16.8 -104.2,-16.7 -157.1,-16.5 48.3,-19 97.3,-38.3 148.9,-44.2 16.9,-1.9 33.9,-2.4 50.7,-4.9 66.5,-9.8 124,-49.6 178.7,-88.3 l 49.8,181 c -69.5,13 -142.8,19.5 -209.8,-3.3" />
      </g>
      <g
         transform="matrix(-0.16701478,0.03548333,0.03548333,0.16701478,5445.633,-2929.4138)"
         id="g9067">
        <path
           inkscape:connector-curvature="0"
           id="path9069"
           style="fill:#543d35;fill-opacity:1;fill-rule:nonzero;stroke:none"
           d="m 16242.8,11939.2 c -37.1,16.1 -59.5,60.4 -50.3,99.9 -8.8,-22.7 -23.3,-44.5 -45.3,-54.9 -39.4,-18.5 -43.8,-0.4 -78.5,-28.1 -7.7,-6.2 -67.5,-95.7 -72.7,-90.1 10.4,-10.9 25.9,-9.9 41.8,-8.8 13.9,0.9 27.9,1.8 39.1,-5.1 17.9,-11.1 19.1,-36 22.5,-56.9 6.2,-38.2 26.8,-73.9 56.8,-98.3 15.8,85.4 69.4,163.1 143.8,208 -8.3,21.5 -36.1,25.1 -57.2,34.3" />
      </g>
      <g
         transform="matrix(-0.17679768,0.03756176,0.03756176,0.17679768,5445.633,-2929.4138)"
         id="g9071">
        <path
           inkscape:connector-curvature="0"
           id="path9073"
           style="fill:#543d35;fill-opacity:1;fill-rule:nonzero;stroke:none"
           d="m 16043.8,10278.8 c -6.3,10.9 -12.5,22.4 -23,29.2 -24.3,15.7 -56.8,-0.7 -85.1,5 -46.6,9.3 -59.6,68.5 -90.6,104.5 -32.3,37.3 -84.5,48.7 -128.9,70 -44.6,21.4 -87.7,67.6 -72.1,114.5 5.5,16.6 18.2,31.4 17.9,48.9 -0.4,29.4 -34,44.6 -60.6,57 -116.8,54.8 -182.2,178.6 -239.5,294.2 48.7,-103.8 97.3,-207.6 145.9,-311.3 25.3,-54.1 50.9,-108.6 86.2,-156.7 59.8,-81.3 151.3,-156.7 144.3,-257.4 -1.2,-17.2 -5.5,-34.4 -3.3,-51.5 10.2,-80.6 142,-94.3 159.9,-173.5 6.1,-27 -3.3,-54.91 -4.7,-82.57 -2.8,-56.46 31.5,-113.01 83,-136.51 L 16300,10050 c -106.8,46.4 -198.1,127.9 -256.2,228.8" />
      </g>
      <g
         id="g4488"
         transform="matrix(-0.12263416,-0.10994815,-0.10994815,0.12263416,6897.4783,470.47545)">
        <path
           d="m 16287.8,14111.2 c -2.1,-2.8 -1.8,-6.1 -0.5,-9.5 l 6.2,3.6 c 6.5,-0.8 -1.7,11.1 -5.7,5.9"
           style="fill:#543d35;fill-opacity:1;fill-rule:nonzero;stroke:none"
           id="path4490"
           inkscape:connector-curvature="0" />
      </g>
      <g
         id="g4492"
         transform="matrix(-0.13962801,-0.12518406,-0.12518406,0.13962801,6876.0663,473.45719)">
        <path
           d="m 16201.9,11314 c -13.7,3.8 -28.7,-9.1 -30.3,-21.1 -73.8,184.9 -147.6,369.9 -221.4,554.8 -14.5,36.3 -29.7,73.7 -57.8,100.8 -33.2,32 -79.5,45.2 -121.2,65 -78.6,37.3 -144,101.8 -182.5,179.8 -18.5,37.4 -40,84.6 -81.8,85.8 -22.8,0.7 -43.2,-13.9 -65.4,-18.8 -34.6,-7.7 -69.6,8.4 -101.4,24 -123.1,60.3 -246.2,120.6 -369.2,180.9 -44.4,21.8 -89.7,43.8 -138.5,51.1 -35,5.2 -70.6,2.7 -105.8,0.2 -96.1,-7 -192.3,-13.9 -288.4,-20.8 -35,-2.5 -70.4,-5 -104.6,2.4 -39.4,8.5 -75.2,29.8 -114.7,37.5 -39.6,7.6 -88.4,-4 -103.5,-41.4 -8.2,-20.1 -4.7,-43.5 -12.7,-63.8 -15.6,-39.6 -65,-50.6 -106.1,-61.9 -94.3,-26 -179.7,-83.1 -239.7,-160.4 -14.6,-18.7 -8.5,-55.9 4.6,-61.1 -207.3,-76 -384.9,-230.5 -488.4,-425.5 11.3,1.2 22.6,2.3 34,3.5 -20.5,-26.7 -40.3,-54 -59.6,-81.8 -52.4,-5.1 -109,-1.6 -152.1,-31.6 -72.2,-50.3 -61.9,-158.3 -43.6,-244.3 -148,17 -97.6,-144.3 -71.1,-213.2 1.9,-5.1 3.8,-10 5.7,-14.8 -68.1,-182 -113.6,-370.3 -135.3,-553.9 54.4,11.9 107.2,-22.6 116.4,-80.8 8.8,-55.7 -13.3,-111.7 -12.8,-168 1.5,-183.8 232.1,-307.2 226.3,-490.93 -1,-30.88 -8.9,-62.42 -0.6,-92.18 7.5,-27.09 27.5,-48.69 46.8,-69.17 85.7,-91.1 174,-184.1 286,-239.91 73.4,-36.59 154.1,-55.66 233.9,-74.42 167.3,-39.29 334.5,-78.59 501.8,-117.88 60.3,-14.17 122,-28.96 173.6,-63.26 69.3,-46.1 89.9,-63.1 170.5,-84.05 65.5,-17.03 133.5,10.15 195.7,36.8 116.8,50.01 233.6,100.02 350.3,150.04 162.4,69.52 326.7,140.23 466,248.84 109.3,85.28 228.7,128.64 318.7,234.14 83,97.39 171.7,220.82 130.3,341.88 81.6,14.1 125.8,102.1 150.1,181.1 61.2,198.1 78.6,409.6 50.8,615.1 -10.2,74.9 -18.6,168.1 45.1,208.8 -20.5,49.6 -41.1,99.2 -61.6,148.8 -7.5,18.2 -17.5,38.6 -36.5,43.7"
           style="fill:#543d35;fill-opacity:1;fill-rule:nonzero;stroke:none"
           id="path4494"
           inkscape:connector-curvature="0" />
      </g>
      <g
         id="g4496"
         transform="matrix(-0.1385847,-0.12424866,-0.12424866,0.1385847,6876.0663,473.45719)">
        <path
           d="m 15899.1,11912.6 c -73.2,101.8 -148.4,204.4 -246.6,282.5 -109.9,87.5 -243.1,140 -374.2,191.4 -129.7,50.8 -264.2,102.4 -403.7,96.6 -76.7,-3.2 -151.7,-23.7 -228.2,-29 -29,-2 -58.3,-1.9 -87.5,-1.7 -51.3,0.3 -102.5,0.6 -152.2,-10.9 -143.1,-32.9 -245.4,-154.3 -365.6,-238.6 -160.3,-112.5 -363.9,-165.3 -496.5,-309.3 -111.1,-120.6 -154.7,-286.8 -238.2,-427.8 -54.3,-91.8 -126.2,-174 -166.1,-272.8 -27.8,-68.7 -38.2,-143.9 -31.7,-217.5 3.9,-209.8 65.1,-414.6 127.3,-615.4 87,-280.6 191.3,-580.75 433.7,-747.7 202.4,-139.41 462,-158.05 699.1,-224.76 109.7,-30.86 217.4,-72.93 331.1,-83 113,-10.03 227,12.27 335.3,46.46 483.9,152.57 866.2,536.64 1128.7,969.4 54.1,89.3 105,184.1 117.1,287.5 19.1,163.6 -60.8,319.9 -95.9,480.6 -31.4,143.8 -27.1,294.8 -69.1,435.8 -42.5,142.8 -129.9,267.3 -216.8,388.2"
           style="fill:#84534a;fill-opacity:1;fill-rule:nonzero;stroke:none"
           id="path4498"
           inkscape:connector-curvature="0" />
      </g>
      <g
         id="g4500"
         transform="matrix(-0.1375302,-0.12330325,-0.12330325,0.1375302,6876.0663,473.45719)"
         style="opacity:1;fill:#aa79c1;fill-opacity:1">
        <path
           d="m 16061.2,11697.2 c -159.9,290.2 -362.5,585 -671.7,703.9 -235.3,90.4 -503.4,114.7 -749.7,61 -149.5,-32.5 -293.9,-125.4 -428.7,-197.9 -196.1,-105.5 -353.8,-268.8 -508.1,-429.4 -152.8,-159.1 -320.5,-299.8 -351.9,-725.1 -32.6,-439.5 107.8,-650.2 154.5,-821.4 54.8,-200.6 124.2,-418.11 298.9,-531 170.1,-109.92 337.6,-129.25 536.2,-168.88 147.5,-29.45 352.2,-99.71 502.3,-109.02 189.3,-11.74 360.1,112.02 531.2,193.83 223.4,106.83 449,229.67 599.6,426.27 85.1,111.1 142.3,241.2 187,373.9 99.1,294 139.2,618.6 43.4,913.6 -35.2,108.5 -87.9,210.4 -143,310.2"
           style="fill:#aa79c1;fill-opacity:1;fill-rule:nonzero;stroke:none"
           id="path4502"
           inkscape:connector-curvature="0" />
      </g>
      <g
         id="g4504"
         transform="matrix(-0.13681726,-0.12266407,-0.12266407,0.13681726,6876.0663,473.45719)"
         style="fill:#9558b2;fill-opacity:1">
        <path
           d="m 16075.9,11694.6 c -150.1,272.3 -340.2,549 -630.4,660.6 -220.8,84.9 -472.5,107.6 -703.6,57.3 -140.4,-30.6 -275.9,-117.7 -402.3,-185.8 -184.1,-99 -332.1,-252.2 -477,-403 -143.4,-149.3 -300.7,-281.3 -330.3,-680.5 -30.5,-412.4 101.2,-610.2 145.1,-770.9 51.4,-188.3 116.5,-392.41 280.5,-498.36 159.6,-103.15 316.8,-121.3 503.2,-158.5 138.5,-27.62 330.6,-93.57 471.4,-102.31 177.7,-11.01 338,105.14 498.5,181.92 209.7,100.26 421.5,215.55 562.8,400.05 79.9,104.3 133.6,226.4 175.5,350.9 93,275.9 130.7,580.6 40.8,857.5 -33.1,101.8 -82.5,197.4 -134.2,291.1"
           style="fill:#9558b2;fill-opacity:1;fill-rule:nonzero;stroke:none"
           id="path4506"
           inkscape:connector-curvature="0" />
      </g>
      <g
         id="g4508"
         transform="matrix(-0.13597218,-0.12190641,-0.12190641,0.13597218,6876.0663,473.45719)"
         style="opacity:1;fill:#aa79c1;fill-opacity:1">
        <path
           d="m 16091,11718.5 c -140.1,254 -317.4,512.2 -588.2,616.3 -206,79.1 -440.8,100.4 -656.4,53.4 -130.9,-28.5 -257.3,-109.8 -375.3,-173.3 -171.7,-92.4 -309.8,-235.3 -445,-376 -133.7,-139.2 -280.5,-262.4 -308,-634.8 -28.5,-384.8 94.3,-569.3 135.3,-719.2 48,-175.7 108.7,-366.1 261.7,-464.9 148.9,-96.27 295.5,-113.2 469.4,-147.9 129.2,-25.78 308.4,-87.29 439.8,-95.45 165.7,-10.28 315.3,98.08 465.1,169.72 195.6,93.53 393.2,201.03 525,373.23 74.5,97.3 124.6,211.2 163.7,327.4 86.7,257.3 121.9,541.6 38,799.9 -30.8,95 -76.9,184.2 -125.1,271.6"
           style="fill:#aa79c1;fill-opacity:1;fill-rule:nonzero;stroke:none"
           id="path4510"
           inkscape:connector-curvature="0" />
      </g>
      <g
         id="g4512"
         transform="matrix(-0.13454168,-0.12062389,-0.12062389,0.13454168,6876.0663,473.45719)"
         style="fill:#9558b2;fill-opacity:1">
        <path
           d="m 16115.9,11785.6 c -123.5,223.8 -280,451.3 -519.1,542.9 -181.8,69.6 -389.2,88.1 -579.7,46.5 -115.6,-25.2 -227.4,-97 -331.6,-153.1 -151.8,-81.6 -273.9,-207.8 -393.3,-331.9 -118.3,-122.9 -248.1,-231.7 -272.8,-560.1 -25.5,-339.3 82.9,-501.9 118.9,-634 42.3,-154.8 95.7,-322.7 230.8,-409.7 131.4,-84.8 260.9,-99.6 414.5,-130 114.1,-22.6 272.3,-76.7 388.4,-83.8 146.4,-8.9 278.5,86.8 410.9,150.1 172.8,82.6 347.5,177.6 464.1,329.5 65.9,85.9 110.2,186.4 144.9,288.8 76.8,227 108.1,477.7 34.2,705.4 -27.1,83.7 -67.8,162.3 -110.2,239.4"
           style="fill:#9558b2;fill-opacity:1;fill-rule:nonzero;stroke:none"
           id="path4514"
           inkscape:connector-curvature="0" />
      </g>
      <g
         id="g4516"
         transform="matrix(-0.1340484,-0.12018164,-0.12018164,0.1340484,6876.0663,473.45719)"
         style="opacity:1;fill:#aa79c1;fill-opacity:1">
        <path
           d="m 16132,11772.9 c -112.6,204.2 -255.2,411.8 -472.8,495.4 -165.6,63.7 -354.3,80.7 -527.7,43 -105.2,-22.9 -206.8,-88.3 -301.6,-139.3 -138.1,-74.3 -249.1,-189.2 -357.7,-302.2 -107.5,-112 -225.5,-211 -247.6,-510.3 -22.9,-309.3 75.8,-457.6 108.7,-578.1 38.6,-141.2 87.4,-294.3 210.4,-373.8 119.7,-77.3 237.6,-90.9 377.3,-118.8 103.8,-20.7 247.9,-70.2 353.6,-76.7 133.1,-8.3 253.4,78.8 373.8,136.4 157.2,75.2 316,161.6 422,300 59.9,78.2 100.2,169.8 131.6,263.1 69.7,206.9 98,435.4 30.6,643 -24.8,76.4 -61.9,148.1 -100.6,218.3"
           style="fill:#aa79c1;fill-opacity:1;fill-rule:nonzero;stroke:none"
           id="path4518"
           inkscape:connector-curvature="0" />
      </g>
      <g
         id="g4520"
         transform="matrix(-0.13297251,-0.11921704,-0.11921704,0.13297251,6876.0663,473.45719)"
         style="fill:#9558b2;fill-opacity:1">
        <path
           d="m 16147.9,11805.1 c -101.3,184.5 -229.1,372.2 -422.5,449.2 -147.1,58.6 -314.2,75.4 -467.4,42.9 -92.9,-19.8 -182.3,-77.7 -265.9,-122.9 -121.6,-65.6 -218.9,-168.1 -314.1,-268.8 -94.3,-99.8 -198,-187.9 -215.2,-456.8 -17.7,-278 70.9,-412.1 101,-520.7 35.2,-127.3 79.7,-265.3 189.2,-337.7 106.6,-70.6 211,-83.7 334.9,-110 92.1,-19.4 220,-65 313.6,-71.8 118,-8.5 223.7,68.9 329.8,119.7 138.5,66.3 278.4,142.8 371.1,266.3 52.4,69.9 87.3,151.9 114.4,235.6 60,185.4 83.2,390.7 21.9,577.9 -22.6,68.8 -55.9,133.6 -90.8,197.1"
           style="fill:#9558b2;fill-opacity:1;fill-rule:nonzero;stroke:none"
           id="path4522"
           inkscape:connector-curvature="0" />
      </g>
      <g
         id="g4524"
         transform="matrix(-0.13231262,-0.11862542,-0.11862542,0.13231262,6876.0663,473.45719)"
         style="opacity:1;fill:#aa79c1;fill-opacity:1">
        <path
           d="m 16170.1,11783.4 c -86.4,157.5 -195.2,317.8 -359.3,383.8 -124.8,50.3 -266.6,65.1 -396.3,37.8 -78.7,-16.6 -154.4,-65.7 -225.1,-104 -102.9,-55.6 -185.1,-142.7 -265.6,-228.3 -79.6,-84.8 -167.2,-159.6 -181.1,-388.7 -14.3,-236.8 61.1,-351.3 86.9,-443.9 30.2,-108.6 68.3,-226.3 161.3,-288.3 90.5,-60.4 179,-71.9 284.1,-94.5 78.1,-16.9 186.7,-56.1 266,-62.1 100,-7.5 189.4,58.1 279.2,101.1 117.3,56.2 235.7,121 313.9,226.1 44.3,59.3 73.6,129.1 96.4,200.4 50.4,157.9 69.5,332.7 17,492.4 -19.2,58.7 -47.7,114 -77.4,168.2"
           style="fill:#aa79c1;fill-opacity:1;fill-rule:nonzero;stroke:none"
           id="path4526"
           inkscape:connector-curvature="0" />
      </g>
      <g
         id="g4528"
         transform="matrix(-0.13119112,-0.11761994,-0.11761994,0.13119112,6876.0663,473.45719)"
         style="fill:#9558b2;fill-opacity:1">
        <path
           d="m 16199.6,11820.9 c -67.8,122.3 -153.9,246.5 -286.7,295.6 -101.1,37.3 -216.6,46.5 -322.9,22.8 -64.6,-14.4 -127.3,-54.4 -185.7,-85.7 -84.9,-45.6 -153.6,-115.4 -220.8,-184.1 -66.5,-68.1 -139.3,-128.4 -154.7,-308.8 -15.8,-186.5 43.8,-275.2 63.3,-347.6 22.8,-84.8 51.8,-176.8 126.7,-223.9 72.8,-45.9 144.9,-53.4 230.4,-69.4 63.5,-11.8 151.4,-40.8 216.1,-44.1 81.5,-4.2 155.6,49 229.8,84.3 96.7,46.2 194.5,99.2 260.2,183.2 37.1,47.5 62.3,102.9 82.1,159.3 43.9,125 62.6,262.8 22.5,387.5 -14.7,45.8 -37,88.8 -60.3,130.9"
           style="fill:#9558b2;fill-opacity:1;fill-rule:nonzero;stroke:none"
           id="path4530"
           inkscape:connector-curvature="0" />
      </g>
      <g
         id="g4532"
         transform="matrix(-0.12999143,-0.11654434,-0.11654434,0.12999143,6876.0663,473.45719)"
         style="opacity:1;fill:#aa79c1;fill-opacity:1">
        <path
           d="m 16220.3,11857.8 c -53.5,96.8 -121.3,195.3 -225.1,234.7 -79,30.1 -169.1,37.9 -251.9,19.7 -50.3,-11 -98.9,-42.2 -144.2,-66.6 -66.1,-35.5 -119.3,-90.2 -171.3,-144.1 -51.5,-53.3 -108,-100.5 -118.9,-242.8 -11.4,-147 35.6,-217.4 51.1,-274.6 18.3,-67 41.4,-139.7 100,-177.3 57.1,-36.6 113.4,-42.9 180,-56 49.6,-9.7 118.3,-33 168.8,-36 63.5,-3.7 121.1,37.8 178.7,65.4 75.2,35.9 151.1,77.2 201.9,143.1 28.8,37.3 48.1,80.8 63.2,125.2 33.6,98.4 47.4,207.1 15.5,305.6 -11.8,36.3 -29.4,70.3 -47.8,103.7"
           style="fill:#aa79c1;fill-opacity:1;fill-rule:nonzero;stroke:none"
           id="path4534"
           inkscape:connector-curvature="0" />
      </g>
      <g
         id="g4536"
         transform="matrix(-0.12871264,-0.11539783,-0.11539783,0.12871264,6876.0663,473.45719)"
         style="fill:#9558b2;fill-opacity:1">
        <path
           d="m 16243.6,11893 c -37.6,68.4 -85.1,138 -157,166.5 -54.7,21.7 -116.8,27.9 -173.7,15.8 -34.6,-7.4 -67.9,-29 -99,-45.7 -45.2,-24.5 -81.5,-62.5 -116.9,-100 -35.1,-37 -73.7,-69.8 -80.2,-169.6 -6.7,-103.2 26.2,-152.9 37.4,-193.2 13,-47.2 29.5,-98.5 70.2,-125.3 39.6,-26.1 78.4,-31 124.5,-40.7 34.2,-7.2 81.8,-24 116.6,-26.5 43.8,-3.1 83.2,25.6 122.6,44.5 51.6,24.7 103.7,53.1 138.1,99 19.6,26 32.6,56.4 42.7,87.5 22.4,68.9 31.1,145.1 8.3,214.5 -8.3,25.6 -20.7,49.6 -33.6,73.2"
           style="fill:#9558b2;fill-opacity:1;fill-rule:nonzero;stroke:none"
           id="path4538"
           inkscape:connector-curvature="0" />
      </g>
      <g
         id="g4540"
         transform="matrix(-0.12733055,-0.11415872,-0.11415872,0.12733055,6876.0663,473.45719)"
         style="opacity:1;fill:#aa79c1;fill-opacity:1">
        <path
           d="m 16189.6,12111.8 c -26.1,6.6 -53.8,3.2 -80,-2.9 -46.9,-10.9 -92.8,-30.7 -127.3,-64.3 -34.5,-33.5 -56.2,-82.2 -50,-129.9 3.7,-27.2 17.7,-53.2 37.9,-71.6 22.1,-53.9 4.8,-121.3 37.1,-170.2 27,-41 83.1,-55.5 131.2,-45.3 48.1,10.2 89.4,40.6 125.8,73.7 11.3,10.3 22.5,21.3 28.8,35.2 6.9,15.5 6.9,33 6.9,49.9 -0.1,29.7 -0.2,59.3 -0.3,89 -0.1,47 -0.4,95 -15.8,139.5 -15.3,44.4 -48.7,85.4 -94.3,96.9"
           style="fill:#aa79c1;fill-opacity:1;fill-rule:nonzero;stroke:none"
           id="path4542"
           inkscape:connector-curvature="0" />
      </g>
      <g
         id="g4544"
         transform="matrix(-0.12500562,-0.11207429,-0.11207429,0.12500562,6876.0663,473.45719)">
        <path
           d="m 15785.4,13618.8 c 14.2,-15.8 30.9,-29.4 44.8,-45.6 24.3,-28.1 39.5,-62.9 53.7,-97.3 54.9,-132.7 103,-271.2 190.9,-384.9 60,-77.6 137.6,-141.6 225.2,-185.6 -54.1,54.4 -105.1,111.9 -152.6,172.1 -52.4,66.3 -103.1,144.5 -93.3,228.5 4.2,36.5 19.9,73.3 11,109 -8.9,36 -40.1,61 -65.2,88.3 -31.8,34.5 -55.7,76.1 -69.6,121 -2.6,8.5 -4.9,17.7 -2.4,26.3 4,14.2 18.9,21.6 30.9,30.2 44.3,31.7 55.7,100.9 24.1,145.2 -1.7,2.5 -3.6,5.3 -4.7,8.2 l -238.1,-135.7 c 9,-29.4 24.6,-56.9 45.3,-79.7"
           style="fill:#543d35;fill-opacity:1;fill-rule:nonzero;stroke:none"
           id="path4546"
           inkscape:connector-curvature="0" />
      </g>
      <g
         id="g4548"
         transform="matrix(-0.1192017,-0.10687077,-0.10687077,0.1192017,6876.0663,473.45719)">
        <path
           d="m 16148.9,11686.6 c -39,-21.3 -84.2,-31.8 -118.7,-59.8 -34.6,-27.9 -53.4,-84.3 -22.4,-116.3 -127.5,-23.1 -204.1,-151.7 -311.6,-224 l 273.5,-230 c -9.2,71.9 -18.4,143.8 -27.6,215.7 -3,23.3 -4.5,50.7 13,66.4 10.5,9.3 25.2,11.8 39.1,13.9 45.9,7 91.9,14 137.8,21 -8.8,47.1 -34.1,89.8 -43.9,136.7 -9.8,46.9 2.1,105 45.8,124.7 33.5,15 78.2,4.1 104.1,30.1 11.2,11.1 16.2,26.9 20.7,42 13.7,45.8 27.6,91.5 41.3,137.2 -42.2,-60.1 -86.6,-122.4 -151.1,-157.6"
           style="fill:#543d35;fill-opacity:1;fill-rule:nonzero;stroke:none"
           id="path4550"
           inkscape:connector-curvature="0" />
      </g>
      <g
         id="g4552"
         transform="matrix(-0.13898955,-0.12461163,-0.12461163,0.13898955,6876.0663,473.45719)">
        <path
           d="m 16090.2,10605.7 c -20.7,-7.1 -40.4,-16.8 -61.2,-23.8 -50.2,-16.8 -104.2,-16.7 -157.1,-16.5 48.3,-19 97.3,-38.3 148.9,-44.2 16.9,-1.9 33.9,-2.4 50.7,-4.9 66.5,-9.8 124,-49.6 178.7,-88.3 l 49.8,181 c -69.5,13 -142.8,19.5 -209.8,-3.3"
           style="fill:#543d35;fill-opacity:1;fill-rule:nonzero;stroke:none"
           id="path4554"
           inkscape:connector-curvature="0" />
      </g>
      <g
         id="g4556"
         transform="matrix(-0.1271295,-0.11397847,-0.11397847,0.1271295,6876.0663,473.45719)">
        <path
           d="m 16242.8,11939.2 c -37.1,16.1 -59.5,60.4 -50.3,99.9 -8.8,-22.7 -23.3,-44.5 -45.3,-54.9 -39.4,-18.5 -43.8,-0.4 -78.5,-28.1 -7.7,-6.2 -67.5,-95.7 -72.7,-90.1 10.4,-10.9 25.9,-9.9 41.8,-8.8 13.9,0.9 27.9,1.8 39.1,-5.1 17.9,-11.1 19.1,-36 22.5,-56.9 6.2,-38.2 26.8,-73.9 56.8,-98.3 15.8,85.4 69.4,163.1 143.8,208 -8.3,21.5 -36.1,25.1 -57.2,34.3"
           style="fill:#543d35;fill-opacity:1;fill-rule:nonzero;stroke:none"
           id="path4558"
           inkscape:connector-curvature="0" />
      </g>
      <g
         id="g4560"
         transform="matrix(-0.13457612,-0.12065477,-0.12065477,0.13457612,6876.0663,473.45719)">
        <path
           d="m 16043.8,10278.8 c -6.3,10.9 -12.5,22.4 -23,29.2 -24.3,15.7 -56.8,-0.7 -85.1,5 -46.6,9.3 -59.6,68.5 -90.6,104.5 -32.3,37.3 -84.5,48.7 -128.9,70 -44.6,21.4 -87.7,67.6 -72.1,114.5 5.5,16.6 18.2,31.4 17.9,48.9 -0.4,29.4 -34,44.6 -60.6,57 -116.8,54.8 -182.2,178.6 -239.5,294.2 48.7,-103.8 97.3,-207.6 145.9,-311.3 25.3,-54.1 50.9,-108.6 86.2,-156.7 59.8,-81.3 151.3,-156.7 144.3,-257.4 -1.2,-17.2 -5.5,-34.4 -3.3,-51.5 10.2,-80.6 142,-94.3 159.9,-173.5 6.1,-27 -3.3,-54.91 -4.7,-82.57 -2.8,-56.46 31.5,-113.01 83,-136.51 L 16300,10050 c -106.8,46.4 -198.1,127.9 -256.2,228.8"
           style="fill:#543d35;fill-opacity:1;fill-rule:nonzero;stroke:none"
           id="path4562"
           inkscape:connector-curvature="0" />
      </g>
    </g>
  </g>
</svg>
